<?xml version="1.0" standalone="no"?>
<!DOCTYPE svg PUBLIC "-//W3C//DTD SVG 20010904//EN"
 "http://www.w3.org/TR/2001/REC-SVG-20010904/DTD/svg10.dtd">
<svg version="1.0" xmlns="http://www.w3.org/2000/svg"
 width="1080.000000pt" height="1080.000000pt" viewBox="0 0 1080.000000 1080.000000"
 preserveAspectRatio="xMidYMid meet">
<metadata>
Created by potrace 1.14, written by Peter Selinger 2001-2017
</metadata>
<g transform="translate(0.000000,1080.000000) scale(0.100000,-0.100000)"
fill="#000000" stroke="none">
<path d="M4520 8325 l0 -94 -97 -3 -98 -3 -3 -197 -2 -198 -100 0 -100 0 0
-392 0 -393 -92 0 -93 0 -3 -487 -2 -488 -195 0 -195 0 0 -295 0 -295 95 0
c69 0 95 -3 95 -12 0 -7 0 -140 0 -295 l-1 -283 101 0 100 0 0 -100 0 -100
195 0 194 0 3 -97 3 -98 98 -3 97 -3 0 -194 0 -195 -100 0 -100 0 0 -95 0 -94
-97 -3 -98 -3 -3 -292 -2 -293 -193 -2 -192 -3 -3 -97 -3 -98 -94 0 -95 0 0
-490 0 -489 98 -3 c53 -2 96 -6 95 -10 -2 -5 -3 -136 -3 -293 l0 -285 -95 0
-94 0 -3 -97 -3 -98 -98 -3 -97 -3 2 -195 3 -195 2055 0 2055 0 3 196 2 195
-95 0 -95 0 0 100 0 100 -100 0 -100 0 0 95 0 95 -95 0 -95 0 0 295 0 295
-100 0 -100 0 0 200 0 200 -100 0 c-55 0 -99 3 -99 8 1 4 1 91 0 195 l-1 187
-95 0 -95 0 0 395 0 395 -100 0 -100 0 2 192 c3 163 5 193 18 194 8 1 52 2 97
2 l83 2 2 293 3 292 93 3 92 3 1 1707 c1 939 3 1733 5 1765 l3 57 -200 0 -199
0 0 -95 0 -94 -97 -3 -98 -3 -3 -97 -3 -98 -94 0 -95 0 -2 -197 -3 -198 -95
-1 -95 -2 -3 -96 -3 -96 -292 2 -292 3 1 488 1 487 -198 0 -199 0 0 -95z m190
-590 l0 -485 -190 0 -190 0 0 190 0 190 95 0 95 0 0 295 0 295 95 0 95 0 0
-485z m1577 0 l-1 -485 -193 0 -193 0 0 190 0 190 95 0 95 0 0 295 0 295 99 0
99 0 -1 -485z m-1377 -2165 l0 -100 195 0 195 0 0 -195 0 -195 100 0 100 0 -2
-292 -3 -293 -95 0 -95 -1 -3 -97 -3 -96 -95 -3 -96 -3 -2 -93 -1 -93 -193 -2
-192 -2 0 193 0 193 183 -1 c100 0 189 -1 197 0 12 0 15 17 13 102 l-2 103
-28 1 c-15 1 -191 2 -390 3 l-362 1 -3 93 -3 92 -197 3 -198 2 0 195 0 195
100 0 100 0 0 95 0 95 100 0 100 0 0 100 0 100 290 0 290 0 0 -100z m390
-1962 l0 -93 -95 3 c-73 3 -95 0 -97 -10 -1 -7 -2 -51 -2 -98 l-1 -85 -97 -3
-98 -3 0 -99 0 -100 -100 0 -100 0 0 -685 0 -685 -95 0 -95 0 0 -100 0 -100
-95 0 -95 0 0 490 0 490 95 0 95 0 0 201 0 200 -95 -3 -95 -3 0 293 0 292 95
0 95 0 0 95 0 95 390 0 390 0 0 -92z m400 -588 l0 -90 -195 0 -195 0 0 93 0
92 195 -3 195 -3 0 -89z m-400 -195 l0 -96 -92 3 -93 3 -3 93 -3 92 96 0 95 0
0 -95z"/>
</g>
</svg>
